<svg width="173" height="174" viewBox="0 0 173 174" fill="none" xmlns="http://www.w3.org/2000/svg">
<rect y="0.259766" width="173" height="173" rx="20" fill="#EC268F"/>
<path d="M42.6155 86.7564C42.6155 83.7712 45.0554 81.3517 48.0655 81.3517C51.0755 81.3517 53.5154 83.7716 53.5154 86.7564C53.5154 89.7416 51.0755 92.1611 48.0655 92.1611C45.0559 92.1611 42.6155 89.7411 42.6155 86.7564ZM68.4302 85.202C67.1972 84.373 65.5174 84.692 64.6804 85.9158L59.2219 93.898H41.4892C40.9996 93.898 40.519 94.03 40.0991 94.2799L30.2108 100.167C29.1614 100.791 28.6669 102.038 29.0066 103.204L31.9127 113.189C32.2538 114.362 33.3334 115.125 34.5056 115.125C34.7536 115.125 35.0056 115.09 35.2558 115.019C36.6886 114.609 37.5148 113.125 37.1012 111.705L34.7711 103.698L40.6004 100.246V127.806L33.1457 138.947C32.1863 140.385 32.5846 142.323 34.0358 143.274C34.5704 143.624 35.1739 143.792 35.7701 143.792C36.7921 143.792 37.7947 143.3 38.4004 142.391L46.3667 130.446C46.7074 129.935 46.8892 129.336 46.8892 128.724V119.768C47.1155 119.762 47.3387 119.753 47.557 119.737L51.3892 129.013V140.744C51.3892 142.469 52.7995 143.867 54.5392 143.867C56.2789 143.867 57.6892 142.469 57.6892 140.744V128.398C57.6892 127.992 57.6095 127.589 57.4543 127.214L52.2892 114.712V99.2518H60.6533C61.5488 99.2518 62.3858 98.8119 62.888 98.0771L69.1498 88.9202C69.9868 87.6964 69.6646 86.0318 68.4302 85.202ZM139.636 43.6704C138.47 43.1065 137.315 42.5345 136.173 41.955C135.019 41.3571 133.87 40.737 132.737 40.1172C130.623 38.9577 128.557 37.7696 126.533 36.5596C126.385 36.6417 126.235 36.7211 126.087 36.8028C126.075 39.1924 125.975 41.524 125.842 43.9051C125.695 46.4486 125.497 49.0194 125.245 51.6151C120.969 48.9306 116.854 46.0609 112.96 43.1466C112.808 43.2104 112.658 43.2765 112.506 43.3394C112.214 45.6625 111.879 48.0044 111.491 50.3667C111.284 51.6289 111.063 52.8969 110.827 54.1698C110.592 55.4417 110.347 56.7311 110.068 57.971C108.015 56.3412 106.017 54.6904 104.077 53.0214C102.261 51.4558 100.506 49.9032 98.7697 48.2439C98.6081 48.2926 98.4466 48.3403 98.2846 48.3885C97.7473 50.6715 97.1654 52.9678 96.5287 55.2798C96.1876 56.5183 95.8321 57.7604 95.4622 59.0065C95.0855 60.2267 94.6922 61.4407 94.2854 62.6632C90.6796 59.106 87.3127 55.5965 84.1109 51.8047C83.9426 51.8359 83.7739 51.864 83.6056 51.8953C82.8266 54.1153 82.0022 56.3443 81.122 58.5822L80.4034 60.3838L79.6555 62.1416C79.1497 63.3137 78.629 64.4871 78.0935 65.6627C76.4393 63.6554 74.8441 61.6402 73.3073 59.6182C71.8727 57.7265 70.4813 55.7407 69.1435 53.7901C68.9729 53.8035 68.8028 53.82 68.6323 53.8329C67.6198 55.9651 66.5614 58.1022 65.4476 60.2415C64.2515 62.4959 62.9947 64.7079 61.6811 66.9454C60.251 64.7824 58.879 62.6172 57.565 60.4525C56.3392 58.3712 55.1692 56.2899 54.0442 54.2104C53.8723 54.2063 53.7013 54.1987 53.5294 54.1943C52.2959 56.2131 51.0161 58.248 49.6823 60.2415C48.2554 62.3379 46.7704 64.4308 45.2269 66.5188C44.0339 64.2109 42.8936 61.9636 41.8217 59.6182C40.8218 57.4235 39.8777 55.2352 38.98 53.053C38.813 53.0312 38.6465 53.0057 38.4796 52.9839C37.8077 53.8628 37.13 54.7417 36.4357 55.618L35.2283 57.126L34.0066 58.5835C32.3627 60.5239 30.6608 62.4557 28.9004 64.376V51.3857V50.9566V49.1104C38.1547 51.0355 47.7406 52.0559 57.5641 52.0559C85.5982 52.0559 111.721 43.811 133.615 29.6518L138.7 29.6514C139.142 34.2967 139.595 38.9135 139.636 43.6704ZM91.711 92.1611C94.721 92.1611 97.1609 89.7411 97.1609 86.7564C97.1609 83.7712 94.721 81.3517 91.711 81.3517C88.7009 81.3517 86.261 83.7716 86.261 86.7564C86.261 89.7411 88.7009 92.1611 91.711 92.1611ZM113.506 106.847L99.3569 94.561C98.8646 94.1335 98.2324 93.898 97.5781 93.898H87.2533C86.657 93.898 86.0779 94.0934 85.6054 94.4543L77.5396 100.615L71.4578 95.4051C70.3297 94.4392 68.6246 94.5614 67.6495 95.6804C66.6743 96.7989 66.799 98.4893 67.9271 99.4561L75.6761 106.095C76.6468 106.926 78.0733 106.966 79.0889 106.19L86.5009 100.528L86.5004 116.843L80.3489 126.398C80.1073 126.774 79.9493 127.196 79.8859 127.637L78.0715 140.227C77.8253 141.934 79.0219 143.517 80.744 143.761C80.8952 143.782 81.0451 143.792 81.1936 143.792C82.7357 143.792 84.0835 142.668 84.308 141.11L86.0257 129.189L91.9004 120.065V140.744C91.9004 142.469 93.3107 143.867 95.0504 143.867C96.7901 143.867 98.2004 142.469 98.2004 140.744V116.206V114.421V100.674L109.948 110.875C110.46 111.319 111.094 111.538 111.726 111.538C112.477 111.538 113.224 111.229 113.758 110.624C114.741 109.512 114.628 107.821 113.506 106.847ZM142.98 133.467L133.297 125.273L131.038 114.418V98.5335L143.634 80.1297C144.471 78.9063 144.149 77.2413 142.916 76.4114C141.681 75.5811 140.002 75.9001 139.165 77.1235L127.685 93.898H112.97L105.442 87.3087C104.324 86.3303 102.618 86.4352 101.631 87.5438C100.644 88.6521 100.75 90.3439 101.868 91.3223L110.162 98.5817C110.656 99.0136 111.291 99.2518 111.949 99.2518H119.35V140.744C119.35 142.469 120.749 143.867 122.489 143.867C124.228 143.867 125.639 142.469 125.639 140.744V119.38L127.346 127.584C127.487 128.264 127.853 128.878 128.386 129.328L138.89 138.218C139.483 138.72 140.211 138.966 140.934 138.966C141.824 138.966 142.708 138.594 143.331 137.87C144.46 136.558 144.304 134.587 142.98 133.467ZM122.801 92.0487C125.812 92.0487 128.251 89.6287 128.251 86.6439C128.251 83.6587 125.812 81.2392 122.801 81.2392C119.791 81.2392 117.352 83.6592 117.352 86.6439C117.352 89.6287 119.791 92.0487 122.801 92.0487Z" fill="black"/>
</svg>
