<svg width="173" height="174" viewBox="0 0 173 174" fill="none" xmlns="http://www.w3.org/2000/svg">
<rect y="0.259766" width="173" height="173" rx="20" fill="#00A859"/>
<g clip-path="url(#clip0_80_5)">
<path d="M86.4995 66.3427C85.726 66.3427 84.9841 66.0354 84.4371 65.4884C83.8902 64.9415 83.5829 64.1996 83.5829 63.4261V43.0094C83.5829 42.2358 83.8902 41.494 84.4371 40.947C84.9841 40.4 85.726 40.0927 86.4995 40.0927C87.2731 40.0927 88.0149 40.4 88.5619 40.947C89.1089 41.494 89.4162 42.2358 89.4162 43.0094V63.4261C89.4162 64.1996 89.1089 64.9415 88.5619 65.4884C88.0149 66.0354 87.2731 66.3427 86.4995 66.3427ZM67.2991 79.4677C67.0002 79.4679 66.703 79.4217 66.4183 79.3306L42.9654 71.9165C42.2278 71.6832 41.6131 71.1666 41.2564 70.4801C40.8998 69.7936 40.8305 68.9936 41.0637 68.2561C41.2969 67.5185 41.8136 66.9038 42.5001 66.5471C43.1865 66.1905 43.9865 66.1212 44.7241 66.3544L68.18 73.7686C68.8453 73.9776 69.4137 74.4182 69.7821 75.0105C70.1505 75.6027 70.2945 76.3073 70.188 76.9966C70.0814 77.6858 69.7315 78.3141 69.2015 78.7675C68.6715 79.2208 67.9966 79.4693 67.2991 79.4677ZM107.039 78.619C106.338 78.6151 105.662 78.3595 105.135 77.8988C104.607 77.438 104.262 76.8029 104.164 76.1092C104.066 75.4156 104.22 74.7097 104.599 74.1205C104.978 73.5312 105.556 73.0978 106.228 72.8994L125.915 67.1886C126.655 66.9845 127.445 67.08 128.115 67.4545C128.784 67.829 129.28 68.4522 129.493 69.1892C129.706 69.9262 129.621 70.7176 129.254 71.3919C128.888 72.0661 128.271 72.569 127.537 72.7915L107.85 78.5023C107.586 78.5796 107.313 78.6189 107.039 78.619ZM112.875 122.246C112.42 122.247 111.971 122.141 111.564 121.937C111.158 121.732 110.805 121.436 110.533 121.071L94.6108 99.6831C94.3731 99.3766 94.199 99.0258 94.0985 98.6512C93.9981 98.2766 93.9734 97.8857 94.0258 97.5014C94.0783 97.1171 94.2068 96.7471 94.404 96.4131C94.6012 96.0791 94.863 95.7878 95.1741 95.5562C95.4852 95.3246 95.8394 95.1574 96.2159 95.0644C96.5924 94.9713 96.9837 94.9543 97.3669 95.0143C97.7501 95.0743 98.1175 95.2101 98.4475 95.4138C98.7776 95.6175 99.0637 95.885 99.2891 96.2006L115.211 117.589C115.534 118.022 115.73 118.537 115.777 119.075C115.824 119.613 115.721 120.154 115.478 120.637C115.236 121.121 114.864 121.527 114.405 121.811C113.945 122.095 113.415 122.246 112.875 122.246ZM59.5174 122.004C58.9849 122.004 58.4626 121.858 58.0073 121.581C57.552 121.305 57.181 120.909 56.9346 120.437C56.6882 119.965 56.5757 119.435 56.6094 118.903C56.6431 118.372 56.8217 117.86 57.1258 117.422L72.0737 95.9119C72.2883 95.5881 72.5653 95.3104 72.8887 95.0951C73.212 94.8798 73.5751 94.7313 73.9566 94.6583C74.3381 94.5852 74.7304 94.5891 75.1104 94.6697C75.4904 94.7503 75.8504 94.9061 76.1694 95.1277C76.4884 95.3494 76.7599 95.6325 76.968 95.9606C77.1761 96.2886 77.3165 96.6549 77.3811 97.0379C77.4457 97.4209 77.4332 97.813 77.3442 98.1911C77.2552 98.5693 77.0915 98.9258 76.8629 99.2398L61.9149 120.75C61.6471 121.138 61.2888 121.455 60.8711 121.673C60.4534 121.892 59.9888 122.006 59.5174 122.004ZM44.2079 113.19C42.9245 113.19 41.7462 112.336 41.3933 111.038L35.0116 87.5235C34.9115 87.1537 34.8851 86.7678 34.9341 86.3878C34.9831 86.0079 35.1064 85.6412 35.2971 85.3089C35.4878 84.9766 35.742 84.6851 36.0454 84.451C36.3487 84.217 36.6951 84.045 37.0649 83.9448C37.4348 83.8446 37.8207 83.8183 38.2007 83.8673C38.5806 83.9163 38.9473 84.0396 39.2796 84.2303C39.6119 84.421 39.9034 84.6752 40.1375 84.9785C40.3715 85.2819 40.5435 85.6283 40.6437 85.9981L47.0254 109.512C47.1436 109.945 47.1602 110.399 47.0739 110.839C46.9877 111.279 46.8009 111.694 46.5282 112.05C46.2554 112.406 45.9041 112.694 45.5016 112.892C45.0991 113.09 44.6564 113.192 44.2079 113.19ZM98.1662 133.426H71.9162C71.1427 133.426 70.4008 133.119 69.8538 132.572C69.3068 132.025 68.9995 131.283 68.9995 130.509C68.9995 129.736 69.3068 128.994 69.8538 128.447C70.4008 127.9 71.1427 127.593 71.9162 127.593H98.1662C98.9398 127.593 99.6816 127.9 100.229 128.447C100.776 128.994 101.083 129.736 101.083 130.509C101.083 131.283 100.776 132.025 100.229 132.572C99.6816 133.119 98.9398 133.426 98.1662 133.426ZM127.7 113.374C127.258 113.375 126.821 113.274 126.423 113.081C126.025 112.887 125.676 112.606 125.403 112.258C125.13 111.909 124.94 111.503 124.848 111.071C124.755 110.638 124.762 110.19 124.868 109.76L131.066 84.604C131.149 84.223 131.307 83.8626 131.532 83.5439C131.757 83.2253 132.043 82.9549 132.374 82.7487C132.704 82.5425 133.073 82.4047 133.458 82.3435C133.843 82.2823 134.237 82.2988 134.615 82.3923C134.993 82.4856 135.349 82.654 135.662 82.8873C135.974 83.1206 136.236 83.4141 136.433 83.7505C136.63 84.087 136.758 84.4595 136.808 84.846C136.859 85.2326 136.831 85.6253 136.727 86.0011L130.53 111.157C130.2 112.484 129.01 113.374 127.7 113.374ZM122.41 56.6827C121.898 56.683 121.394 56.5482 120.951 56.2919L98.8954 43.5315C98.5638 43.3395 98.2733 43.084 98.0404 42.7797C97.8076 42.4754 97.637 42.1282 97.5384 41.7579C97.4398 41.3876 97.4152 41.0016 97.4658 40.6218C97.5165 40.242 97.6415 39.8759 97.8337 39.5444C98.0249 39.2124 98.2798 38.9214 98.5837 38.6881C98.8876 38.4548 99.2346 38.2838 99.6047 38.1848C99.9749 38.0859 100.361 38.0611 100.741 38.1117C101.12 38.1623 101.487 38.2874 101.818 38.4798L123.874 51.2402C124.43 51.5615 124.865 52.0576 125.11 52.6513C125.356 53.2451 125.399 53.9033 125.232 54.5238C125.065 55.1442 124.698 55.6922 124.187 56.0826C123.677 56.473 123.052 56.684 122.41 56.6827ZM50.0441 56.6827C49.426 56.6838 48.8236 56.4885 48.3237 56.125C47.8238 55.7615 47.4524 55.2486 47.2629 54.6603C47.0734 54.072 47.0756 53.4387 47.2694 52.8518C47.4631 52.2649 47.8383 51.7547 48.3408 51.3948L66.3891 38.4506C67.0187 38.0329 67.7858 37.8755 68.5291 38.0116C69.2723 38.1477 69.9339 38.5667 70.3746 39.1804C70.8154 39.7942 71.001 40.5549 70.8926 41.3027C70.7841 42.0505 70.3899 42.727 69.7929 43.1902L51.7416 56.1344C51.2469 56.49 50.6533 56.6817 50.0441 56.6827Z" fill="black"/>
<path d="M108.355 73.6814L87.3312 58.856C86.8349 58.507 86.2421 58.3212 85.6353 58.3243C85.0285 58.3275 84.4378 58.5194 83.945 58.8735L63.0413 73.9439C62.5526 74.2964 62.1851 74.7916 61.9892 75.3614C61.7934 75.9311 61.7788 76.5476 61.9475 77.126L69.2392 102.16C69.4159 102.766 69.7843 103.298 70.2892 103.676C70.794 104.055 71.4081 104.26 72.0392 104.26H98.1667C98.7775 104.26 99.3729 104.068 99.869 103.712C100.365 103.356 100.737 102.852 100.932 102.274L109.44 76.9948C109.64 76.3993 109.642 75.7551 109.447 75.1581C109.251 74.5611 108.868 74.0432 108.355 73.6814ZM37.7683 91.2573C38.2861 91.2574 38.7947 91.1197 39.2416 90.8583C39.6886 90.5969 40.0579 90.2212 40.3117 89.7698L50.1554 72.2698C50.304 72.005 50.4102 71.7186 50.4704 71.421L54.3583 52.3431C54.4454 51.9192 54.437 51.4813 54.3336 51.0611C54.2303 50.6409 54.0347 50.249 53.761 49.9138C53.4873 49.5786 53.1423 49.3087 52.7512 49.1235C52.3602 48.9383 51.9327 48.8425 51.5 48.8431H50.2517C40.2562 58.401 34 71.8381 34 86.7598C34 87.5356 34.0817 88.291 34.1167 89.0581L35.8725 90.5573C36.4033 91.0123 37.0771 91.2573 37.7683 91.2573ZM64.9662 42.9952C65.119 43.3102 65.3452 43.5838 65.626 43.793C65.9067 44.0021 66.2336 44.1407 66.5792 44.1968L85.1729 47.236C85.4079 47.2711 85.6467 47.2711 85.8817 47.236L103.627 44.3193C103.917 44.2723 104.195 44.1669 104.444 44.0097C104.692 43.8524 104.907 43.6465 105.074 43.4042C105.241 43.162 105.357 42.8885 105.416 42.6002C105.474 42.3118 105.474 42.0146 105.415 41.7264L104.563 37.5177C98.7814 35.3743 92.6661 34.2713 86.5 34.2598C79.4271 34.2598 72.6925 35.6773 66.5354 38.2148L65.0158 40.9856C64.848 41.2924 64.7559 41.6348 64.7473 41.9844C64.7386 42.334 64.8137 42.6805 64.9662 42.9952ZM124.808 50.9402L120.421 50.6631C120.089 50.6429 119.757 50.6977 119.45 50.8235C119.142 50.9492 118.867 51.1426 118.645 51.3893C118.425 51.6362 118.264 51.9302 118.176 52.2488C118.087 52.5673 118.073 52.9019 118.134 53.2268L121.538 71.3044C121.588 71.5369 121.68 71.7583 121.809 71.9577C126.161 79.261 131.003 87.4189 131.67 88.8219C131.74 89.0669 131.851 89.0523 132.003 89.2623C132.411 89.831 133.088 89.6764 133.788 89.6764H133.808C134.386 89.6764 134.75 89.9506 138.965 87.4802C138.968 87.2381 139 87.0019 139 86.7598C139 72.8969 133.587 60.3231 124.808 50.9402ZM76.4113 131.606C76.4428 131.025 76.2424 130.454 75.8542 130.02L62.7292 115.436C62.5542 115.242 62.3458 115.081 62.1138 114.961C44.9492 106.01 44.6313 105.905 44.4213 105.832C44.1932 105.758 43.9551 105.72 43.7154 105.718C42.1492 105.718 41.6883 105.908 40.2592 111.621C46.852 123.848 58.0114 132.973 71.3042 137.005L75.6792 133.117C76.1136 132.73 76.3769 132.187 76.4113 131.606ZM128.424 106.619C128.151 106.504 127.856 106.446 127.559 106.448C127.262 106.451 126.969 106.514 126.698 106.634L108.955 114.413C108.646 114.547 108.372 114.751 108.156 115.011L95.7604 129.836C95.5754 130.058 95.4361 130.315 95.3505 130.591C95.265 130.867 95.2349 131.158 95.262 131.445C95.2891 131.733 95.3729 132.013 95.5085 132.268C95.6441 132.524 95.8288 132.75 96.0521 132.934C98.0442 134.564 99.73 135.938 101.206 137.134C114.019 133.375 124.921 124.88 131.697 113.374L129.62 107.865C129.516 107.587 129.356 107.333 129.15 107.119C128.945 106.905 128.698 106.735 128.424 106.619Z" fill="black"/>
</g>
<defs>
<clipPath id="clip0_80_5">
<rect width="105" height="105" fill="white" transform="translate(34 34.2598)"/>
</clipPath>
</defs>
</svg>
