<svg width="173" height="174" viewBox="0 0 173 174" fill="none" xmlns="http://www.w3.org/2000/svg">
<rect y="0.259766" width="173" height="173" rx="20" fill="#00AFEF"/>
<g clip-path="url(#clip0_78_205)">
<path d="M123.58 56.1596H138V42.5596H69.3331C69.3331 42.5596 41.8665 42.5596 41.8665 69.7596V107.16C34.3131 112.6 32.9398 123.48 38.4331 130.96C43.9265 138.44 54.9131 139.8 62.4664 134.36C69.3331 139.8 79.6331 138.44 85.8131 131.64C89.9331 135.72 96.1131 137.76 102.293 137.76C116.713 137.76 127.7 126.88 128.386 112.6C128.386 101.72 121.52 92.1996 111.22 88.7996V69.7596C110.533 62.2796 116.026 56.1596 123.58 56.1596ZM103.666 90.1596V93.5596C113.966 94.2396 121.52 103.76 120.833 113.96C120.146 123.48 111.906 130.96 102.293 130.96C94.7398 131.64 89.9331 126.88 87.8731 124.16H82.3798C81.6931 125.52 79.6331 130.96 72.7664 130.96C65.8998 130.96 63.8398 126.88 63.1531 124.16H61.7798C60.4065 126.88 58.3465 129.6 55.5998 130.28C49.4198 132.32 43.9264 128.92 42.5531 123.48C41.1798 118.04 43.9264 112.6 48.7331 111.24V76.5596C48.7331 73.1596 51.4798 69.7596 55.5998 69.7596C59.0331 69.7596 62.4664 72.4796 62.4664 76.5596V107.16C62.4664 109.2 63.8398 110.56 65.8998 110.56C67.9598 110.56 69.3331 109.2 69.3331 107.16V83.3596C69.3331 79.2796 72.0798 76.5596 76.1998 76.5596C80.3198 76.5596 83.0664 79.2796 83.0664 83.3596V107.16C83.0664 109.2 84.4398 110.56 86.4998 110.56C88.5598 110.56 89.9331 109.2 89.9331 107.16V76.5596C89.9331 72.4796 92.6798 69.7596 96.7998 69.7596C100.92 69.7596 103.666 72.4796 103.666 76.5596V90.1596Z" fill="black"/>
</g>
<defs>
<clipPath id="clip0_78_205">
<rect width="103" height="102" fill="white" transform="translate(35 35.7598)"/>
</clipPath>
</defs>
</svg>
