<svg width="173" height="174" viewBox="0 0 173 174" fill="none" xmlns="http://www.w3.org/2000/svg">
<rect y="0.259766" width="173" height="173" rx="20" fill="#ED2F59"/>
<path d="M120.783 147.564H52.5001C51.9281 147.602 51.3542 147.524 50.8129 147.335C50.2717 147.146 49.7744 146.849 49.3508 146.462C48.9273 146.076 48.5863 145.608 48.3485 145.086C48.1106 144.564 47.9808 144 47.9668 143.427V30.0935C47.9808 29.5203 48.1106 28.9559 48.3485 28.4342C48.5863 27.9125 48.9273 27.4444 49.3508 27.0579C49.7744 26.6714 50.2717 26.3746 50.8129 26.1854C51.3542 25.9962 51.9281 25.9184 52.5001 25.9568H121.067C122.194 25.9568 123.275 26.4046 124.072 27.2016C124.869 27.9987 125.317 29.0796 125.317 30.2068C125.317 31.334 124.869 32.415 124.072 33.212C123.275 34.0091 122.194 34.4568 121.067 34.4568H79.1335V82.3402L121.803 93.3335C122.723 93.5709 123.537 94.1047 124.121 94.8527C124.705 95.6007 125.026 96.521 125.033 97.4702V143.427C125.004 144.534 124.543 145.586 123.749 146.359C122.955 147.132 121.891 147.564 120.783 147.564ZM56.4668 139.064H116.533V100.757L73.8635 89.4235C72.9443 89.2065 72.1253 88.6857 71.5391 87.9451C70.9528 87.2044 70.6337 86.2881 70.6335 85.3435V34.3435H56.4668V139.064Z" fill="black"/>
<path d="M105.2 97.6963C104.75 97.7779 104.289 97.7779 103.84 97.6963C103.278 97.5206 102.759 97.2299 102.315 96.8429C101.872 96.4559 101.514 95.981 101.263 95.4483C101.013 94.9151 100.875 94.3365 100.861 93.7478C100.846 93.1596 100.953 92.5742 101.176 92.0296L105.143 80.073C105.285 79.5052 105.542 78.9731 105.898 78.5095C106.255 78.046 106.704 77.6607 107.216 77.3785C107.729 77.0963 108.294 76.9229 108.877 76.8696C109.459 76.8158 110.047 76.8826 110.602 77.0668C111.158 77.2504 111.669 77.5468 112.105 77.9378C112.54 78.3282 112.89 78.8048 113.133 79.3369C113.376 79.869 113.506 80.4458 113.516 81.0306C113.526 81.6154 113.415 82.1963 113.19 82.7363L109.166 94.8063C108.885 95.6387 108.353 96.3641 107.643 96.8814C106.932 97.3994 106.079 97.6838 105.2 97.6963Z" fill="black"/>
</svg>
