<svg width="171" height="171" viewBox="0 0 171 171" fill="none" xmlns="http://www.w3.org/2000/svg">
<rect width="170.167" height="170.26" rx="20" fill="#EC268F"/>
<path d="M112.489 98.2029C113.091 98.694 113.591 99.2988 113.959 99.9829C114.328 100.667 114.558 101.417 114.637 102.19C114.715 102.963 114.641 103.744 114.417 104.488C114.194 105.233 113.826 105.926 113.335 106.528C110.023 110.881 105.75 114.409 100.85 116.839C95.9488 119.268 90.5531 120.532 85.0833 120.532C79.6136 120.532 74.2178 119.268 69.3171 116.839C64.4164 114.409 60.1433 110.881 56.8312 106.528C55.8395 105.312 55.3715 103.751 55.5302 102.19C55.6888 100.629 56.4612 99.1947 57.6773 98.2029C58.8935 97.2112 60.4537 96.7432 62.0149 96.9019C63.5761 97.0605 65.0103 97.8329 66.0021 99.049C68.2004 102.045 71.0734 104.481 74.3884 106.161C77.7034 107.84 81.3672 108.715 85.0833 108.715C88.7994 108.715 92.4633 107.84 95.7783 106.161C99.0933 104.481 101.966 102.045 104.165 99.049C104.656 98.4468 105.26 97.9473 105.945 97.5788C106.629 97.2104 107.379 96.9804 108.152 96.9018C108.925 96.8232 109.706 96.8977 110.45 97.1209C111.194 97.3442 111.887 97.7119 112.489 98.2029ZM67.3333 85.0383C68.9025 85.0383 70.4074 84.415 71.517 83.3054C72.6266 82.1958 73.25 80.6909 73.25 79.1217V73.205C73.25 71.6358 72.6266 70.1309 71.517 69.0213C70.4074 67.9117 68.9025 67.2883 67.3333 67.2883C65.7641 67.2883 64.2592 67.9117 63.1496 69.0213C62.04 70.1309 61.4167 71.6358 61.4167 73.205V79.1217C61.4167 80.6909 62.04 82.1958 63.1496 83.3054C64.2592 84.415 65.7641 85.0383 67.3333 85.0383ZM102.833 85.0383C104.403 85.0383 105.907 84.415 107.017 83.3054C108.127 82.1958 108.75 80.6909 108.75 79.1217V73.205C108.75 71.6358 108.127 70.1309 107.017 69.0213C105.907 67.9117 104.403 67.2883 102.833 67.2883C101.264 67.2883 99.7592 67.9117 98.6496 69.0213C97.54 70.1309 96.9166 71.6358 96.9166 73.205V79.1217C96.9166 80.6909 97.54 82.1958 98.6496 83.3054C99.7592 84.415 101.264 85.0383 102.833 85.0383ZM150.167 85.0383C150.188 94.8915 147.971 104.621 143.684 113.493C139.397 122.364 133.152 130.147 125.419 136.254C117.686 142.36 108.668 146.631 99.044 148.745C89.4202 150.858 79.442 150.759 69.8621 148.455C60.2821 146.15 51.3505 141.701 43.7406 135.442C36.1307 129.183 30.0413 121.277 25.9316 112.322C21.8219 103.367 19.7992 93.5955 20.0159 83.7447C20.2326 73.8939 22.6832 64.2208 27.1828 55.455H25.9167C24.3475 55.455 22.8425 54.8316 21.733 53.7221C20.6234 52.6125 20 51.1075 20 49.5383C20 47.9691 20.6234 46.4642 21.733 45.3546C22.8425 44.245 24.3475 43.6217 25.9167 43.6217H34.9159C43.4486 33.2974 54.9588 25.8571 67.8762 22.3159C80.7936 18.7747 94.4889 19.3051 107.094 23.8348C119.698 28.3645 130.599 36.6728 138.307 47.6261C146.016 58.5795 150.157 71.6444 150.167 85.0383ZM51.6897 43.6217H118.477C109.031 35.9663 97.2418 31.7889 85.0833 31.7889C72.9248 31.7889 61.1355 35.9663 51.6897 43.6217ZM138.333 85.0383C138.343 74.5007 135.207 64.2 129.328 55.455H40.8385C36.2093 62.3675 33.2641 70.2685 32.2391 78.5245C31.2141 86.7805 32.1377 95.1619 34.9361 102.997C37.7344 110.831 42.3295 117.901 48.3529 123.64C54.3764 129.378 61.6606 133.626 69.6216 136.041C77.5825 138.457 85.9988 138.974 94.1955 137.55C102.392 136.126 110.141 132.802 116.821 127.843C123.502 122.885 128.927 116.43 132.663 108.997C136.399 101.563 138.341 93.3577 138.333 85.0383Z" fill="black"/>
</svg>
