<svg width="173" height="174" viewBox="0 0 173 174" fill="none" xmlns="http://www.w3.org/2000/svg">
<rect y="0.259766" width="173" height="173" rx="20" fill="#00A859"/>
<path d="M103.125 131.093H69.8753M42.167 96.7355V65.7022C42.167 59.4949 42.167 56.389 43.375 54.0182C44.4376 51.9327 46.1319 50.2384 48.2174 49.1758C50.5882 47.9678 53.6942 47.9678 59.9014 47.9678H113.101C119.309 47.9678 122.408 47.9678 124.779 49.1758C126.864 50.2384 128.564 51.9327 129.627 54.0182C130.834 56.3867 130.834 59.4888 130.834 65.684V96.7516C130.834 102.947 130.834 106.044 129.627 108.413C128.564 110.498 126.864 112.198 124.779 113.261C122.41 114.468 119.313 114.468 113.118 114.468H59.8832C53.6881 114.468 50.5859 114.468 48.2174 113.261C46.1319 112.198 44.4376 110.498 43.375 108.413C42.167 106.042 42.167 102.943 42.167 96.7355ZM100.354 81.2178L75.417 64.5928V97.8428L100.354 81.2178Z" stroke="black" stroke-width="10" stroke-linecap="round" stroke-linejoin="round"/>
</svg>
