<svg width="173" height="174" viewBox="0 0 173 174" fill="none" xmlns="http://www.w3.org/2000/svg">
<rect y="0.259766" width="173" height="173" rx="20" fill="#FFF212"/>
<path d="M86.5 41.7598C61.3891 41.7598 41.0312 61.9078 41.0312 86.7598C41.0312 111.612 61.3891 131.76 86.5 131.76C111.611 131.76 131.969 111.612 131.969 86.7598C131.969 61.9078 111.611 41.7598 86.5 41.7598ZM106.358 91.1893C97.8793 98.1298 85.0117 96.5773 77.6139 87.7258C70.2161 78.8728 71.0922 66.0718 79.5706 59.1313C88.049 52.1938 100.917 53.7433 108.314 62.5978C115.712 71.4523 114.835 84.2518 106.358 91.1893Z" fill="black"/>
<path d="M98.9415 69.8666C100.066 67.6811 100.051 65.2556 98.5838 62.9201C96.0375 58.8686 90.9223 58.0826 86.2011 60.9926C81.4375 63.9221 79.8901 68.8061 82.4363 72.8606C83.9019 75.1931 86.095 76.2791 88.6079 76.2266C86.9271 78.9536 86.8619 81.9311 88.5761 84.6581C91.2815 88.9616 96.6301 89.8991 102.208 86.4686C107.785 83.0351 109.301 77.8736 106.595 73.5656C104.88 70.8431 102.156 69.5831 98.9415 69.8666ZM86.571 70.6646C85.2175 68.5106 85.8692 65.8721 88.317 64.3661C90.7329 62.8811 93.467 63.4841 94.7962 65.5991C96.1285 67.7171 95.4889 70.4501 93.076 71.9366C90.6298 73.4441 87.9259 72.8171 86.571 70.6646ZM99.9297 82.8461C97.2455 84.4991 94.2461 83.8571 92.7805 81.5216C91.3588 79.2626 92.1712 76.4246 94.8554 74.7716C97.5426 73.1186 100.492 73.6901 101.889 75.9146C103.334 78.2111 102.615 81.1901 99.9297 82.8461Z" fill="black"/>
</svg>
