<svg width="173" height="174" viewBox="0 0 173 174" fill="none" xmlns="http://www.w3.org/2000/svg">
<rect y="0.259766" width="173" height="173" rx="20" fill="#00AFEF"/>
<path d="M110.191 95.0723H62.8094C52.8344 95.0723 44.9375 87.1754 44.9375 77.2004V58.9129C44.9375 48.9379 52.8344 41.041 62.8094 41.041H110.606C120.166 41.041 128.062 48.9379 128.062 58.9129V77.616C128.062 87.1754 120.166 95.0723 110.191 95.0723ZM62.8094 49.3535C57.4063 49.3535 53.25 53.5098 53.25 58.9129V77.616C53.25 82.6035 57.4063 86.7598 62.8094 86.7598H110.606C116.009 86.7598 120.166 82.6035 120.166 77.2004V58.9129C119.75 53.5098 115.594 49.3535 110.191 49.3535H62.8094Z" fill="black"/>
<path d="M98.9688 65.9785H74.0312C71.5375 65.9785 69.875 64.316 69.875 61.8223C69.875 59.3285 71.5375 57.666 74.0312 57.666H98.9688C101.462 57.666 103.125 59.3285 103.125 61.8223C103.125 64.316 101.462 65.9785 98.9688 65.9785Z" fill="black"/>
<path d="M59.0691 49.7691H114.347C115.594 49.7691 117.257 48.9379 117.672 47.691C118.504 46.4441 118.504 45.1973 118.088 43.5348C111.854 31.066 101.463 24.416 86.5004 24.416C71.5379 24.416 61.1473 31.066 55.3285 43.9504C54.4973 45.1973 54.4973 46.8598 55.3285 48.1066C56.1598 49.3535 57.4066 49.7691 59.0691 49.7691Z" fill="black"/>
<path d="M69.8746 104.632V110.866C66.134 111.697 62.3934 112.944 59.0684 114.191C65.7184 118.347 75.6934 120.841 86.4996 120.841C97.3059 120.841 107.281 118.347 113.931 114.191C110.606 112.944 106.865 111.697 103.125 110.866V104.632C106.865 101.722 110.19 97.566 113.1 92.9941C113.931 91.7473 113.931 90.0848 113.1 88.8379C112.268 87.591 111.021 86.7598 109.359 86.7598H63.6402C61.9777 86.7598 60.7309 87.591 59.8996 88.8379C59.0684 90.0848 59.0684 91.7473 59.8996 92.9941C63.2246 97.566 66.134 101.722 69.8746 104.632Z" fill="black"/>
<path d="M122.244 118.763C114.347 125.413 101.463 129.569 86.5 129.569C71.9531 129.569 59.0688 125.413 50.7563 118.763C40.3656 125.413 33.7156 134.556 32.4688 144.531C32.4688 145.778 32.8844 147.025 33.3 147.856C33.7156 148.688 35.7938 149.103 36.625 149.103H136.375C137.622 149.103 138.869 148.688 139.284 147.856C139.7 147.025 140.531 145.778 140.116 144.531C139.284 134.141 132.219 124.997 122.244 118.763Z" fill="black"/>
</svg>
