<svg width="173" height="174" viewBox="0 0 173 174" fill="none" xmlns="http://www.w3.org/2000/svg">
<rect y="0.259766" width="173" height="173" rx="20" fill="#ED2F59"/>
<path d="M86.6541 33.8584C79.9473 33.8584 74.4264 38.6936 73.4303 45.054H99.8706C98.876 38.6936 93.3607 33.8584 86.6541 33.8584ZM63.2245 35.9251L47.3614 51.8241C53.2844 57.4395 58.6885 60.6546 62.9578 61.9616C67.5837 63.3786 70.6296 62.6465 72.2859 60.9668C72.8434 60.4017 73.291 59.6665 73.5915 58.7681C70.7839 55.6776 69.0715 51.5905 69.0715 47.1209C69.0715 45.9453 69.1899 44.7942 69.4151 43.6831C67.8166 41.2399 65.7735 38.6359 63.2249 35.9251H63.2245ZM110.077 35.9251C107.527 38.6357 105.483 41.2399 103.885 43.6831C104.111 44.7942 104.229 45.9453 104.229 47.1209C104.23 51.5905 102.515 55.6776 99.7093 58.7681C100.009 59.6667 100.457 60.4019 101.015 60.967C102.671 62.6467 105.717 63.3788 110.343 61.9623C114.613 60.6546 120.016 57.4395 125.94 51.8243L110.076 35.9253L110.077 35.9251ZM73.437 49.2146C74.3372 54.8843 78.8321 59.3425 84.5552 60.2294V49.2146H73.437ZM88.7524 49.2146V60.2294C94.4746 59.3425 98.9645 54.8843 99.8639 49.2146H88.7524ZM76.9256 61.621C76.4921 62.4515 75.9481 63.2078 75.2905 63.8751C73.716 65.4716 71.6204 66.4232 69.1908 66.7347C73.0641 73.6014 79.8548 76.8161 86.6469 76.7959C93.4156 76.7758 100.194 73.5406 104.075 66.7345C101.661 66.4183 99.5777 65.464 98.0108 63.8749C97.3536 63.2083 96.8152 62.4499 96.3824 61.6203C93.5943 63.4668 90.2477 64.5496 86.6539 64.5496C83.0602 64.5496 79.7151 63.4668 76.9256 61.6203V61.621ZM53.1799 61.8225C50.5107 63.6238 48.2066 65.7401 46.4349 68.1615C47.5984 68.605 48.6958 69.3202 49.685 70.2487C49.7495 70.3095 49.8101 70.3738 49.8743 70.4366C51.6694 68.0221 54.1851 65.9416 57.2865 64.1604C55.9539 63.5057 54.5819 62.7287 53.1799 61.8225ZM120.072 61.8572C118.663 62.765 117.283 63.5411 115.944 64.1951C119.077 65.9852 121.618 68.0738 123.427 70.4918C123.485 70.4344 123.543 70.3745 123.602 70.3181C124.588 69.3812 125.684 68.6536 126.845 68.1962C125.064 65.7775 122.752 63.66 120.072 61.8572H120.072ZM43.6902 71.8075C42.7603 71.8142 41.7338 72.2076 40.5598 73.3242C39.3851 74.4411 38.143 76.2737 37.057 78.8416C35.0288 83.6377 33.5605 90.9809 33.3721 100.704H53.98C53.7922 90.8989 52.3224 83.529 50.2948 78.7446C49.2093 76.1836 47.9672 74.3649 46.7992 73.2686C45.6313 72.1722 44.6196 71.8008 43.6897 71.8075H43.6902ZM129.638 71.8075C128.708 71.8142 127.682 72.2076 126.508 73.3242C125.334 74.4411 124.092 76.2737 123.005 78.8416C120.977 83.6377 119.509 90.9809 119.321 100.704H139.929C139.741 90.8989 138.271 83.529 136.244 78.7446C135.158 76.1836 133.916 74.3649 132.748 73.2686C131.58 72.1722 130.568 71.8008 129.638 71.8075ZM92.6901 80.1638C90.7139 80.6834 88.6857 80.9511 86.6537 80.9573C84.612 80.9633 82.5748 80.7057 80.5892 80.1918C79.4015 81.4405 78.6942 83.0556 78.6942 84.791C78.6942 88.6318 82.142 91.8813 86.6539 91.8813C91.1656 91.8813 94.6134 88.6321 94.6134 84.791C94.6134 83.0423 93.8946 81.4167 92.6901 80.1642V80.1638ZM75.6198 89.502C70.9461 91.8488 66.7751 95.751 63.7296 101.135C64.9146 101.644 66.0402 102.407 67.0987 103.404C69.9041 98.2314 73.8312 94.746 78.1608 92.8276C77.1089 91.8782 76.2475 90.7546 75.6198 89.5015V89.502ZM97.6667 89.5572C97.0311 90.8081 96.1558 91.924 95.0972 92.8692C99.4126 94.7996 103.334 98.2769 106.146 103.397C106.16 103.383 106.173 103.368 106.188 103.355C107.218 102.395 108.341 101.642 109.522 101.135C106.476 95.7978 102.322 91.9129 97.6667 89.5572ZM60.2479 104.559C59.0229 104.55 57.7139 105.049 56.275 106.389C54.8364 107.728 53.3513 109.911 52.0497 112.957C50.3927 116.835 49.0521 122.122 48.2942 128.752C50.2023 127.817 52.3093 127.361 54.4014 127.367C57.7233 127.376 61.0633 128.55 63.6031 130.937C65.734 132.939 67.2378 135.801 67.667 139.3H72.8892C72.6969 127.642 70.9328 118.84 68.4743 113.075C65.8688 106.966 62.6977 104.576 60.2479 104.558V104.559ZM113.024 104.559C111.799 104.55 110.497 105.049 109.058 106.389C107.62 107.728 106.128 109.911 104.826 112.957C102.368 118.71 100.609 127.544 100.418 139.3H105.633C106.059 135.776 107.56 132.905 109.697 130.902C112.241 128.516 115.591 127.358 118.913 127.367C121.002 127.373 123.104 127.834 125.006 128.773C124.249 122.206 122.911 116.952 121.257 113.075C118.652 106.966 115.474 104.576 113.024 104.559ZM37.5273 104.865C37.296 105.732 37.2982 106.664 37.5691 107.586C38.4271 110.503 41.8742 112.394 45.3253 111.552C48.7484 110.716 50.5691 107.76 49.7614 104.865L37.5269 104.865H37.5273ZM123.475 104.865C123.244 105.732 123.246 106.664 123.517 107.586C124.375 110.503 127.822 112.394 131.273 111.552C134.696 110.716 136.517 107.76 135.709 104.865L123.475 104.865ZM54.3872 131.528C52.0591 131.521 49.7576 132.333 48.0633 133.922C46.7303 135.172 45.7332 136.912 45.3613 139.3H63.428C63.0542 136.94 62.0515 135.209 60.7192 133.957C59.0211 132.361 56.7159 131.535 54.3874 131.528L54.3872 131.528ZM118.9 131.528C116.571 131.521 114.277 132.333 112.582 133.922C111.249 135.172 110.245 136.912 109.873 139.3H127.94C127.566 136.94 126.563 135.209 125.231 133.957C123.533 132.361 121.228 131.535 118.9 131.528Z" fill="black"/>
</svg>
